<svg width="340" height="257" viewBox="0 0 340 257" fill="none" xmlns="http://www.w3.org/2000/svg">
<path d="M312.494 172.771C308.847 178.899 294.193 179.209 286.934 183.538C280.249 187.501 277.687 198.027 268.513 200.43C260.446 202.568 249.041 195.829 239.503 196.689C230.919 197.444 222.089 206.209 212.624 205.901C203.904 205.65 196.359 196.467 187.133 195.259C178.494 194.15 166.79 200.901 157.915 198.944C149.467 197.092 145.078 186.846 136.608 184.217C128.138 181.588 114.783 186.367 107.095 183.249C99.0304 179.948 97.7624 169.222 90.6937 165.465C83.1405 161.489 68.7059 163.851 62.4176 159.527C55.5861 154.791 58.3047 144.144 53.1662 139.165C47.4799 133.619 32.833 132.335 29.3738 126.647C25.5216 120.232 34.3039 111.662 33.6976 105.424C33.0754 98.6434 23.337 90.7675 26.9839 84.6394C30.6319 78.5501 45.2845 78.2018 52.5962 73.871C59.2811 69.908 61.8439 59.3822 70.9648 56.9802C79.0309 54.8419 90.4363 61.5815 99.974 60.7214C108.558 59.9668 117.388 51.2015 126.853 51.5091C135.628 51.798 143.173 60.9809 152.399 62.1891C161.037 63.2978 172.741 56.5469 181.617 58.5035C190.065 60.3559 194.453 70.6019 202.923 73.2308C211.394 75.8596 224.749 71.0811 232.436 74.1989C240.501 77.5 241.769 88.2252 248.838 91.9826C256.391 95.9591 270.826 93.5969 277.114 97.921C283.946 102.657 281.227 113.303 286.365 118.283C292.106 123.866 306.7 125.151 310.159 130.84C314.011 137.255 305.229 145.824 305.835 152.062C306.403 158.806 316.14 166.643 312.494 172.771Z" fill="#FFC759"/>
<path d="M135.671 95.512C136.575 95.9803 137.208 96.5846 137.571 97.3249C137.938 98.0509 138.019 98.8795 137.815 99.8107C137.526 101.129 136.814 102.046 135.68 102.563C134.545 103.08 133.054 103.136 131.206 102.731L124.071 101.167L127.369 86.1246L134.095 87.599C135.786 87.9696 137.03 88.5952 137.828 89.4758C138.626 90.3564 138.89 91.4128 138.62 92.6449C138.447 93.4328 138.104 94.0709 137.592 94.5592C137.094 95.0506 136.454 95.3682 135.671 95.512ZM128.711 93.153L132.45 93.9726C133.353 94.1705 134.08 94.1421 134.631 93.8876C135.182 93.6331 135.535 93.1548 135.689 92.4528C135.843 91.7508 135.723 91.1689 135.328 90.7071C134.937 90.231 134.29 89.894 133.388 89.6962L129.649 88.8765L128.711 93.153ZM131.591 100.564C133.568 100.997 134.72 100.469 135.047 98.9787C135.367 97.5174 134.539 96.57 132.562 96.1366L128.264 95.1945L127.293 99.6214L131.591 100.564ZM153.301 95.5477L150.785 107.023L148.12 106.439L150.137 97.2415L144.485 96.0026L142.469 105.2L139.782 104.611L142.298 93.1358L153.301 95.5477ZM166.398 104.5C166.357 104.686 166.285 104.948 166.181 105.286L157.177 103.312C157.149 104.192 157.41 104.954 157.959 105.6C158.525 106.235 159.303 106.661 160.292 106.877C161.552 107.154 162.682 106.966 163.681 106.314L164.758 108.284C164.107 108.787 163.353 109.11 162.496 109.253C161.639 109.395 160.716 109.358 159.728 109.141C158.467 108.865 157.412 108.371 156.562 107.659C155.712 106.947 155.119 106.089 154.784 105.084C154.466 104.069 154.431 102.995 154.679 101.863C154.924 100.746 155.394 99.798 156.091 99.0196C156.804 98.2301 157.667 97.6836 158.68 97.38C159.692 97.0764 160.764 97.0487 161.896 97.2968C163.014 97.5417 163.954 98.0107 164.718 98.7037C165.5 99.3855 166.035 100.231 166.324 101.24C166.631 102.239 166.656 103.325 166.398 104.5ZM161.425 99.4458C160.566 99.2573 159.778 99.355 159.064 99.7389C158.366 100.112 157.86 100.706 157.546 101.523L164.058 102.951C164.125 102.095 163.922 101.344 163.447 100.7C162.973 100.055 162.299 99.6373 161.425 99.4458ZM176.997 100.607C178.115 100.852 179.057 101.314 179.824 101.993C180.606 102.674 181.15 103.514 181.457 104.512C181.763 105.511 181.789 106.59 181.535 107.75C181.281 108.911 180.804 109.887 180.105 110.68C179.408 111.458 178.563 111.994 177.568 112.286C176.587 112.582 175.538 112.607 174.421 112.362C172.873 112.023 171.762 111.239 171.085 110.009L169.865 115.575L167.179 114.986L170.608 99.3417L173.165 99.9022L172.836 101.407C173.399 100.959 174.033 100.671 174.737 100.54C175.456 100.412 176.209 100.434 176.997 100.607ZM174.624 109.997C175.612 110.213 176.494 110.061 177.269 109.54C178.058 109.023 178.57 108.227 178.806 107.152C179.041 106.078 178.909 105.14 178.409 104.34C177.923 103.543 177.186 103.036 176.197 102.819C175.553 102.678 174.939 102.701 174.358 102.889C173.779 103.062 173.28 103.388 172.86 103.867C172.439 104.345 172.151 104.943 171.994 105.659C171.837 106.375 171.849 107.039 172.03 107.649C172.212 108.259 172.528 108.771 172.977 109.185C173.43 109.585 173.979 109.855 174.624 109.997ZM192.577 109.923C193.901 110.664 194.409 111.736 194.101 113.14C193.875 114.172 193.314 114.882 192.418 115.271C191.522 115.66 190.315 115.688 188.796 115.356L182.951 114.074L185.466 102.599L191.075 103.828C192.479 104.136 193.519 104.634 194.194 105.323C194.868 106.011 195.102 106.828 194.895 107.774C194.766 108.361 194.497 108.835 194.088 109.196C193.693 109.56 193.189 109.802 192.577 109.923ZM186.973 107.951L189.788 108.569C191.178 108.873 191.978 108.546 192.188 107.586C192.393 106.654 191.8 106.037 190.41 105.732L187.595 105.115L186.973 107.951ZM189.01 113.353C190.485 113.676 191.328 113.358 191.539 112.398C191.649 111.897 191.559 111.487 191.268 111.168C190.981 110.834 190.472 110.588 189.741 110.428L186.582 109.735L185.937 112.679L189.01 113.353ZM203.53 110.522C204.991 110.843 206.036 111.417 206.665 112.246C207.295 113.074 207.477 114.09 207.214 115.294C206.937 116.554 206.294 117.434 205.283 117.934C204.287 118.436 203.01 118.509 201.452 118.152L196.256 116.991L198.772 105.515L201.458 106.104L200.633 109.865L203.53 110.522ZM210.354 108.054L213.041 108.643L210.525 120.119L207.839 119.53L210.354 108.054ZM201.649 116.123C202.434 116.31 203.071 116.278 203.562 116.025C204.053 115.772 204.371 115.316 204.515 114.657C204.657 114.012 204.56 113.496 204.224 113.107C203.889 112.718 203.315 112.427 202.501 112.234L200.228 111.713L199.376 115.603L201.649 116.123ZM226.125 117.592C226.084 117.779 226.011 118.04 225.907 118.378L216.903 116.404C216.875 117.284 217.136 118.047 217.685 118.693C218.252 119.328 219.029 119.753 220.018 119.97C221.279 120.246 222.408 120.058 223.407 119.407L224.484 121.377C223.833 121.88 223.08 122.203 222.222 122.345C221.365 122.487 220.443 122.45 219.454 122.234C218.193 121.957 217.138 121.463 216.288 120.751C215.438 120.04 214.845 119.181 214.51 118.177C214.192 117.161 214.157 116.088 214.405 114.956C214.65 113.838 215.121 112.89 215.817 112.112C216.531 111.323 217.394 110.776 218.406 110.472C219.419 110.169 220.491 110.141 221.623 110.389C222.74 110.634 223.681 111.103 224.445 111.796C225.226 112.478 225.762 113.324 226.051 114.333C226.358 115.331 226.382 116.418 226.125 117.592ZM221.151 112.538C220.292 112.35 219.505 112.448 218.79 112.831C218.093 113.204 217.587 113.799 217.273 114.616L223.784 116.043C223.852 115.187 223.648 114.437 223.174 113.792C222.7 113.148 222.025 112.73 221.151 112.538ZM230.73 108.782L233.91 109.479L231.168 119.419L229.041 118.952L230.73 108.782ZM228.989 124.324C228.488 124.214 228.107 123.965 227.847 123.578C227.589 123.176 227.513 122.739 227.616 122.266C227.72 121.793 227.971 121.436 228.37 121.193C228.768 120.95 229.218 120.883 229.72 120.993C230.207 121.1 230.573 121.345 230.819 121.73C231.08 122.117 231.158 122.547 231.055 123.02C230.951 123.493 230.698 123.858 230.297 124.115C229.912 124.361 229.477 124.431 228.989 124.324ZM77.3993 102.812L68.2049 113.522C67.3963 114.47 66.5312 115.129 65.6095 115.498C64.7054 115.855 63.7877 115.932 62.8565 115.728C62.1115 115.564 61.4082 115.245 60.7467 114.77L61.9148 112.728C62.4614 113.043 62.9281 113.243 63.3149 113.328C64.2175 113.526 65.0645 113.224 65.856 112.421L66.1725 112.108L62.6359 99.5756L65.6229 100.23L68.1352 110.038L74.6486 102.209L77.3993 102.812ZM87.6164 108.79L85.1009 120.266L82.4146 119.677L83.3898 115.229C82.1704 115.517 80.959 115.529 79.7556 115.265C78.28 114.942 77.222 114.357 76.5816 113.511C75.9444 112.651 75.7797 111.518 76.0875 110.114L76.893 106.44L79.5792 107.028L78.8114 110.531C78.6512 111.262 78.7468 111.853 79.0981 112.306C79.4493 112.758 80.019 113.071 80.8069 113.244C81.8098 113.463 82.8168 113.459 83.8279 113.23L84.9302 108.201L87.6164 108.79ZM95.5334 110.391C97.2239 110.761 98.4238 111.452 99.133 112.463C99.8598 113.464 100.044 114.78 99.6861 116.414L98.2116 123.14L95.6758 122.584L95.982 121.187C95.5426 121.616 94.985 121.899 94.3093 122.037C93.6511 122.163 92.8922 122.131 92.0326 121.943C91.173 121.755 90.4523 121.446 89.8704 121.019C89.2916 120.576 88.8797 120.058 88.6346 119.464C88.407 118.858 88.3654 118.226 88.5098 117.567C88.736 116.536 89.2962 115.795 90.1905 115.346C91.1023 114.885 92.382 114.835 94.0296 115.196L96.9952 115.846L97.0328 115.674C97.2087 114.872 97.1002 114.203 96.7073 113.666C96.3287 113.133 95.6667 112.762 94.7211 112.555C94.0765 112.414 93.4169 112.374 92.7426 112.437C92.0826 112.502 91.4984 112.667 90.9901 112.931L90.3658 110.744C91.068 110.418 91.8685 110.225 92.7671 110.167C93.6658 110.109 94.5879 110.183 95.5334 110.391ZM93.02 120.11C93.6933 120.257 94.3209 120.237 94.9026 120.05C95.5017 119.851 95.9716 119.488 96.3121 118.962L96.6042 117.63L93.832 117.022C92.2847 116.683 91.3996 117.022 91.1766 118.039C91.0699 118.526 91.1785 118.955 91.5025 119.327C91.8265 119.698 92.3323 119.959 93.02 120.11ZM106.725 125.164C105.536 124.903 104.523 124.418 103.688 123.71C102.852 123.001 102.266 122.144 101.931 121.14C101.599 120.121 101.557 119.046 101.805 117.914C102.053 116.782 102.539 115.83 103.264 115.058C103.989 114.286 104.872 113.752 105.913 113.454C106.969 113.16 108.098 113.145 109.301 113.409C110.433 113.657 111.372 114.103 112.116 114.746C112.875 115.393 113.376 116.194 113.617 117.147L111.29 117.899C111.077 117.296 110.748 116.811 110.303 116.444C109.875 116.065 109.368 115.811 108.781 115.682C107.778 115.462 106.875 115.609 106.071 116.124C105.271 116.624 104.751 117.419 104.513 118.508C104.274 119.596 104.405 120.541 104.905 121.341C105.423 122.13 106.19 122.636 107.207 122.859C107.795 122.988 108.36 122.977 108.904 122.826C109.465 122.664 109.968 122.354 110.414 121.896L112.213 123.551C111.581 124.314 110.783 124.837 109.82 125.121C108.874 125.394 107.842 125.409 106.725 125.164ZM125.024 119.378L121.005 118.497L118.989 127.694L116.303 127.106L118.319 117.908L114.279 117.022L114.778 114.744L125.523 117.1L125.024 119.378ZM127.472 117.527L130.158 118.116L128.5 125.68L136.497 119.505L138.947 120.042L136.432 131.518L133.745 130.929L135.404 123.365L127.427 129.544L124.956 129.002L127.472 117.527ZM152.034 128.992C151.993 129.178 151.92 129.44 151.816 129.778L142.812 127.804C142.784 128.684 143.045 129.447 143.594 130.093C144.161 130.727 144.938 131.153 145.927 131.37C147.188 131.646 148.317 131.458 149.316 130.806L150.393 132.777C149.742 133.28 148.988 133.602 148.131 133.745C147.274 133.887 146.352 133.85 145.363 133.633C144.102 133.357 143.047 132.863 142.197 132.151C141.347 131.439 140.754 130.581 140.419 129.577C140.101 128.561 140.066 127.487 140.314 126.356C140.559 125.238 141.03 124.29 141.726 123.512C142.44 122.722 143.303 122.176 144.315 121.872C145.328 121.569 146.4 121.541 147.532 121.789C148.649 122.034 149.59 122.503 150.354 123.196C151.135 123.878 151.671 124.723 151.96 125.733C152.267 126.731 152.291 127.817 152.034 128.992ZM147.06 123.938C146.201 123.75 145.414 123.847 144.699 124.231C144.002 124.604 143.496 125.199 143.182 126.016L149.693 127.443C149.761 126.587 149.557 125.837 149.083 125.192C148.608 124.548 147.934 124.13 147.06 123.938Z" fill="#4E2D29"/>
<path d="M168.763 127.479C169.895 127.727 170.828 128.165 171.562 128.791C172.298 129.403 172.792 130.164 173.043 131.075C173.311 131.975 173.327 132.962 173.092 134.036C172.85 135.139 172.35 136.051 171.592 136.77C170.851 137.479 169.927 137.959 168.821 138.212C167.732 138.454 166.564 138.438 165.317 138.165C163.269 137.716 161.775 136.721 160.837 135.179C159.899 133.637 159.709 131.591 160.268 129.04C161.317 124.255 164.05 121.927 168.466 122.054L174.354 122.218L174.163 125.758L169.061 125.608C167.764 125.564 166.766 125.735 166.065 126.122C165.383 126.498 164.879 127.153 164.553 128.088C165.813 127.343 167.216 127.14 168.763 127.479ZM166.017 135.075C166.748 135.236 167.373 135.125 167.892 134.743C168.425 134.365 168.769 133.824 168.923 133.122C169.086 132.377 168.998 131.75 168.66 131.24C168.324 130.716 167.798 130.376 167.082 130.219C166.351 130.059 165.717 130.145 165.178 130.477C164.654 130.813 164.311 131.353 164.147 132.098C163.99 132.814 164.084 133.45 164.427 134.006C164.771 134.562 165.301 134.918 166.017 135.075ZM186.892 136.498C186.886 136.527 186.791 136.859 186.607 137.494L178.14 135.638C178.18 136.278 178.407 136.815 178.822 137.252C179.254 137.677 179.843 137.971 180.588 138.134C181.147 138.257 181.644 138.283 182.079 138.214C182.529 138.147 183.001 137.98 183.495 137.713L185.155 140.419C183.746 141.432 181.953 141.699 179.776 141.222C178.415 140.924 177.275 140.404 176.357 139.662C175.438 138.92 174.793 138.028 174.421 136.985C174.063 135.946 174.011 134.846 174.266 133.685C174.517 132.539 175.014 131.575 175.756 130.791C176.516 129.997 177.439 129.449 178.527 129.146C179.614 128.844 180.766 128.827 181.984 129.094C183.145 129.348 184.144 129.822 184.983 130.517C185.825 131.197 186.417 132.055 186.761 133.091C187.122 134.116 187.166 135.252 186.892 136.498ZM181.37 131.999C180.739 131.861 180.17 131.924 179.662 132.188C179.168 132.455 178.796 132.884 178.546 133.475L183.317 134.521C183.337 133.88 183.172 133.333 182.821 132.881C182.484 132.431 182 132.138 181.37 131.999ZM193.581 144.248C192.292 143.966 191.195 143.455 190.291 142.716C189.387 141.977 188.749 141.087 188.377 140.044C188.019 139.005 187.967 137.905 188.222 136.745C188.476 135.584 188.981 134.614 189.738 133.834C190.512 133.043 191.463 132.508 192.59 132.229C193.72 131.936 194.93 131.931 196.219 132.214C197.537 132.503 198.613 133.039 199.448 133.823C200.285 134.592 200.794 135.522 200.976 136.612L197.463 137.532C197.163 136.37 196.504 135.677 195.486 135.454C194.756 135.294 194.093 135.404 193.5 135.784C192.92 136.168 192.536 136.789 192.348 137.649C192.156 138.523 192.242 139.262 192.605 139.868C192.985 140.461 193.54 140.838 194.271 140.999C195.288 141.222 196.176 140.868 196.936 139.939L199.741 142.243C199.12 143.158 198.267 143.797 197.182 144.159C196.099 144.507 194.899 144.537 193.581 144.248ZM215.377 136.616L212.824 148.264L208.762 147.373L210.604 138.971L206.693 138.114L204.851 146.516L200.79 145.626L203.343 133.978L215.377 136.616ZM230.021 139.826L227.468 151.474L223.385 150.579L225.227 142.176L222.283 141.531L221.806 143.296C221.416 144.802 220.991 146.022 220.53 146.958C220.07 147.893 219.499 148.578 218.818 149.015C218.14 149.437 217.314 149.541 216.34 149.327C215.838 149.217 215.2 148.98 214.424 148.614L215.326 145.321C215.578 145.406 215.746 145.458 215.832 145.477C216.276 145.575 216.645 145.505 216.937 145.269C217.229 145.033 217.469 144.687 217.659 144.234C217.852 143.765 218.05 143.133 218.255 142.337L219.491 137.518L230.021 139.826ZM237.557 141.276C239.491 141.7 240.869 142.467 241.692 143.578C242.517 144.675 242.731 146.133 242.332 147.953L240.914 154.421L237.11 153.588L237.44 152.083C236.605 153.086 235.335 153.401 233.63 153.027C232.727 152.829 231.981 152.501 231.391 152.041C230.801 151.581 230.392 151.049 230.165 150.443C229.954 149.827 229.925 149.175 230.075 148.487C230.317 147.384 230.927 146.624 231.904 146.208C232.884 145.777 234.255 145.755 236.018 146.141L238.338 146.65C238.537 145.402 237.848 144.605 236.272 144.26C235.714 144.137 235.127 144.106 234.513 144.167C233.903 144.213 233.362 144.35 232.892 144.577L232.124 141.504C232.863 141.215 233.716 141.057 234.683 141.029C235.668 140.989 236.626 141.071 237.557 141.276ZM235.334 150.698C235.807 150.802 236.247 150.778 236.656 150.627C237.064 150.477 237.396 150.197 237.651 149.787L237.872 148.777L236.11 148.391C234.921 148.13 234.24 148.394 234.067 149.182C233.989 149.54 234.062 149.856 234.287 150.131C234.512 150.405 234.861 150.594 235.334 150.698ZM255.613 148.837L251.874 148.018L250.032 156.42L245.971 155.53L247.813 147.127L244.052 146.303L244.763 143.058L256.325 145.592L255.613 148.837ZM257.907 145.939L261.968 146.829L261.021 151.149L265.212 152.067L266.159 147.748L270.242 148.643L267.689 160.291L263.606 159.395L264.501 155.312L260.31 154.394L259.415 158.477L255.354 157.587L257.907 145.939ZM276.138 162.345C274.891 162.072 273.823 161.568 272.934 160.832C272.044 160.097 271.413 159.207 271.041 158.165C270.683 157.126 270.631 156.026 270.886 154.865C271.137 153.719 271.642 152.749 272.402 151.954C273.176 151.163 274.112 150.625 275.211 150.34C276.327 150.045 277.515 150.035 278.776 150.311C280.037 150.587 281.112 151.093 282.002 151.829C282.895 152.55 283.52 153.431 283.878 154.47C284.239 155.495 284.292 156.588 284.037 157.748C283.783 158.909 283.276 159.886 282.516 160.681C281.757 161.475 280.819 162.02 279.703 162.316C278.587 162.612 277.399 162.622 276.138 162.345ZM276.849 159.1C277.566 159.257 278.206 159.143 278.772 158.756C279.34 158.355 279.72 157.718 279.911 156.844C280.1 155.984 280.018 155.261 279.667 154.673C279.315 154.085 278.781 153.713 278.065 153.556C277.348 153.399 276.707 153.514 276.142 153.9C275.577 154.287 275.2 154.91 275.012 155.77C274.82 156.644 274.899 157.382 275.247 157.983C275.599 158.571 276.133 158.943 276.849 159.1Z" fill="#AF37A3"/>
</svg>
