<svg width="204" height="218" viewBox="0 0 204 218" fill="none" xmlns="http://www.w3.org/2000/svg">
<path d="M10.16 79.8669C10.0829 79.644 10.032 79.4245 10.0106 79.1823C9.9012 78.0721 10.4001 76.9886 11.333 76.3664L29.9544 63.887L31.5431 41.5239C31.6313 40.4077 32.3141 39.4229 33.331 38.9714C34.3591 38.516 35.5468 38.6669 36.4236 39.362L54.0454 53.2226L75.8119 47.8171C76.9055 47.5512 78.0507 47.9039 78.7873 48.7349C79.5389 49.5731 79.7684 50.7417 79.3737 51.8017L71.6384 72.8461L83.4957 91.8698C84.0994 92.8216 84.1016 94.0189 83.5492 94.9836C82.9856 95.9522 81.9365 96.5271 80.8134 96.4912L58.4175 95.6377L43.9848 112.796C43.2596 113.658 42.13 114.036 41.0383 113.802C39.9354 113.572 38.9862 112.74 38.7653 111.668L32.6533 90.0961L11.8698 81.6717C11.0567 81.3414 10.4414 80.6806 10.16 79.8669ZM37.1725 47.6264L35.8874 65.7788C35.8232 66.712 35.3291 67.5567 34.5479 68.0765L19.4324 78.2079L36.2968 85.0425C37.1548 85.3947 37.8752 86.1065 38.0682 87.0256L43.0344 104.526L54.7544 90.6024C55.3543 89.8833 56.2525 89.4853 57.1891 89.5233L75.3722 90.2114L65.7407 74.7732C65.2283 73.977 65.154 73.0044 65.4762 72.1317L71.7489 55.0499L54.0851 59.436C53.1775 59.6625 52.2204 59.4569 51.4829 58.8758L37.1725 47.6264ZM53.3547 56.4939L53.374 56.5496L53.3547 56.4939Z" fill="#FFC759"/>
<path d="M80.7001 72.0212C80.5537 71.5976 80.5037 71.1282 80.5617 70.6464C80.7744 68.988 82.2905 67.8148 83.9528 68.0386C86.6421 68.3815 150.356 77.1352 190.226 128.377C191.233 129.701 191.005 131.602 189.696 132.616C188.379 133.646 186.486 133.402 185.445 132.09C147.141 82.8517 83.8081 74.1161 83.1806 74.0336C81.9928 73.8828 81.0625 73.0689 80.7001 72.0212Z" fill="#FFC759"/>
<path d="M90.479 100.3C90.1976 99.4858 90.2656 98.5638 90.7378 97.7641C91.587 96.3223 93.4317 95.8466 94.8734 96.6958C96.9272 97.9074 145.329 126.906 163.522 171.867C164.31 173.279 163.406 175.177 161.851 175.802C160.306 176.424 158.541 175.686 157.916 174.13C140.47 131.045 92.2642 102.178 91.791 101.892C91.1567 101.538 90.7064 100.957 90.479 100.3Z" fill="#FFC759"/>
<path d="M63.4358 112.459C63.1236 111.556 63.2388 110.518 63.8524 109.694C64.8332 108.344 66.7245 108.04 68.0745 109.02C69.7592 110.247 109.567 139.51 131.719 188.63C132.348 190.197 131.73 191.946 130.209 192.634C128.687 193.323 126.904 192.641 126.216 191.12C104.725 143.443 64.9248 114.203 64.5263 113.916C63.9961 113.538 63.6323 113.027 63.4358 112.459Z" fill="#FFC759"/>
</svg>
