<svg width="78" height="69" viewBox="0 0 78 69" fill="none" xmlns="http://www.w3.org/2000/svg">
<path d="M19.8018 68.9999C19.3265 68.9999 18.883 68.7465 18.6454 68.3346L12.0131 56.9868L0.66534 50.3545C0.253463 50.1116 0 49.6734 0 49.1981C0 48.7229 0.253463 48.2793 0.66534 48.0417L12.0131 41.4094L18.6454 30.0617C19.1259 29.2379 20.4777 29.2379 20.9582 30.0617L27.5958 41.4094L38.9435 48.0417C39.3554 48.2846 39.6089 48.7229 39.6089 49.1981C39.6089 49.6734 39.3554 50.1169 38.9435 50.3545L27.5958 56.9868L20.9635 68.3346C20.7206 68.7465 20.2823 68.9999 19.8018 68.9999ZM3.99732 49.1981L13.6712 54.8535C13.8718 54.9697 14.0355 55.1387 14.1517 55.334L19.8071 65.0079L25.4625 55.334C25.5786 55.1334 25.7423 54.9697 25.943 54.8535L35.6168 49.1981L25.943 43.548C25.7423 43.4318 25.5786 43.2629 25.4625 43.0675L19.8018 33.3936L14.1517 43.0622C14.0355 43.2629 13.8718 43.4266 13.6712 43.5427L3.99732 49.1981Z" fill="#FFD583"/>
<path d="M62.6053 50.5607C62.1301 50.5607 61.6865 50.3072 61.4489 49.8954L56.707 41.7793L48.5909 37.0374C48.1791 36.7945 47.9256 36.3562 47.9256 35.881C47.9256 35.4057 48.1791 34.9622 48.5909 34.7246L56.707 29.9827L61.4489 21.8666C61.9294 21.0428 63.2812 21.0428 63.7617 21.8666L68.5036 29.9827L76.6197 34.7246C77.0316 34.9675 77.2851 35.4057 77.2851 35.881C77.2851 36.3562 77.0316 36.7998 76.6197 37.0374L68.5036 41.7793L63.7617 49.8954C63.5188 50.3072 63.0806 50.5607 62.6053 50.5607ZM51.9229 35.881L58.3598 39.646C58.5605 39.7621 58.7242 39.9311 58.8403 40.1265L62.6053 46.5634L66.3703 40.1265C66.4865 39.9258 66.6502 39.7621 66.8508 39.646L73.2877 35.881L66.8508 32.1213C66.6502 32.0051 66.4865 31.8361 66.3703 31.6408L62.6053 25.2039L58.8403 31.6408C58.7242 31.8414 58.5605 32.0051 58.3598 32.1213L51.9229 35.881Z" fill="#FFD583"/>
<path d="M38.2676 18.4553C37.7924 18.4553 37.3488 18.2018 37.1112 17.7899L34.3706 13.1009L29.6816 10.3603C29.2697 10.1174 29.0162 9.67912 29.0162 9.20387C29.0162 8.72863 29.2697 8.28507 29.6816 8.04745L34.3706 5.30688L37.1112 0.617816C37.5917 -0.205939 38.9435 -0.205939 39.4241 0.617816L42.1646 5.30688L46.8537 8.04745C47.2656 8.29035 47.519 8.72863 47.519 9.20387C47.519 9.67912 47.2656 10.1227 46.8537 10.3603L42.1646 13.1009L39.4241 17.7899C39.1812 18.1965 38.7429 18.4553 38.2676 18.4553ZM33.0136 9.20387L36.0234 10.9623C36.2241 11.0784 36.3878 11.2474 36.504 11.4428L38.2624 14.4527L40.0208 11.4428C40.1369 11.2421 40.3006 11.0784 40.5013 10.9623L43.5111 9.20387L40.5013 7.44019C40.3006 7.32402 40.1369 7.15505 40.0208 6.95967L38.2624 3.9498L36.504 6.95967C36.3878 7.16033 36.2241 7.32402 36.0234 7.44019L33.0136 9.20387Z" fill="#FFD583"/>
</svg>
