<svg width="164" height="127" viewBox="0 0 164 127" fill="none" xmlns="http://www.w3.org/2000/svg">
<path d="M146.686 67.0322C146.259 67.2515 145.768 67.3464 145.271 67.2981L125.364 65.226L111.492 79.6716C110.851 80.3495 109.879 80.6016 108.977 80.3566C108.08 80.098 107.392 79.3721 107.199 78.4484L103.017 58.8648L84.9966 50.135C84.1557 49.7238 83.6009 48.8846 83.5729 47.9546C83.5313 47.0204 84.0226 46.1384 84.8315 45.6778L102.164 35.6489L104.89 15.8108C105.018 14.8792 105.659 14.1118 106.523 13.7804C107.4 13.4532 108.391 13.6526 109.082 14.2757L123.974 27.6597L143.685 24.121C144.605 23.9634 145.539 24.3154 146.119 25.0515C146.7 25.7875 146.818 26.7836 146.447 27.6374L138.32 45.9335L147.771 63.5855C148.209 64.4171 148.162 65.4194 147.643 66.1809C147.383 66.5505 147.06 66.8403 146.686 67.0322ZM123.235 60.3386C123.662 60.1193 124.153 60.0245 124.65 60.0727L141.065 61.7805L133.276 47.232C132.91 46.5428 132.884 45.7246 133.193 45.0146L139.893 29.9364L123.659 32.8466C122.896 32.9802 122.106 32.7563 121.524 32.2349L109.247 21.2061L106.997 37.5505C106.889 38.3254 106.436 38.9967 105.761 39.3888L91.4767 47.649L106.328 54.8481C107.029 55.1848 107.533 55.8368 107.698 56.5953L111.139 72.7254L122.565 60.829C122.765 60.6255 122.995 60.462 123.235 60.3386Z" fill="#FFC759"/>
<path d="M31.4305 100.825C30.9146 101.09 30.2984 101.182 29.6841 101.037C28.3254 100.712 27.4921 99.3523 27.8171 97.9936C39.6432 48.623 88.1189 23.2127 90.1825 22.1526C91.4189 21.5174 92.9493 22.0015 93.589 23.2468C94.2242 24.4832 93.7401 26.0136 92.4948 26.6533C92.0145 26.9001 44.0105 52.0906 32.7408 99.1741C32.5476 99.9142 32.0621 100.501 31.4305 100.825Z" fill="#FFC759"/>
<path d="M30.8503 123.001C30.2899 123.289 29.611 123.368 28.9558 123.165C27.6231 122.759 26.8652 121.35 27.2799 120.013C41.0785 74.7441 85.5028 58.3855 87.3963 57.7163C88.706 57.2458 90.1492 57.9322 90.6197 59.2419C91.0948 60.5605 90.3814 61.995 89.0986 62.4742C88.644 62.6178 45.1559 78.6978 32.1084 121.489C31.8967 122.171 31.4285 122.704 30.8503 123.001Z" fill="#FFC759"/>
<path d="M44.5112 119.524C43.7106 119.936 42.7174 119.906 41.9198 119.361C40.7707 118.568 40.4807 116.997 41.2732 115.848C63.3205 83.8123 96.8277 78.0878 98.2385 77.8577C99.618 77.6324 100.907 78.5664 101.133 79.9459C101.353 81.3166 100.437 82.6191 99.0444 82.8401C98.7229 82.8928 66.2117 88.4991 45.428 118.705C45.1948 119.061 44.8758 119.337 44.5112 119.524Z" fill="#FFC759"/>
</svg>
